# xmcd
#
# Track frame offsets:
#	150
#	10549
#	19884
#	29979
#	40924
#	50482
#	60763
#	70948
#	83684
#	93572
#	102876
#	114813
#	126301
#	137309
#	150817
#	163575
#	173523
#	185646
#	198504
#	210061
#	223142
#	234011
#
# Disc length: 3281 seconds
#
# Revision: 0
# Processed by: cddbd v1.5.2PL0 Copyright (c) Steve Scherf et al.
# Submitted via: EasyCDDAExtractor 16.0.1.1
#
DISCID=100ccf16
DTITLE=Wilf Carter [Montana Slim] - A Canadian Legend [Bear Family] Disc 4
DYEAR=195
DGENRE=Country
TTITLE0=Goodbye Maria (I'm Off To Korea)
TTITLE1=Driftwood On The River
TTITLE2=Manhunt
TTITLE3=(All You Gave Me Was) Mockingbird Love (1953)
TTITLE4=Square-Dance Boogie
TTITLE5=Sweet Little Lover
TTITLE6=Huggin'  Squeezin'  Kissin'  Teasin'
TTITLE7=Sleep Little One Sleep (1953)
TTITLE8=Alabama Saturday Night
TTITLE9=Hot Foot Boogie
TTITLE10=I Remember The Rodeo (1959)
TTITLE11=Pete Knight, The King Of The Cowboys (1959)
TTITLE12=When The Iceworms Nest Again (1959)
TTITLE13=My Little Grey Haired Mother In The West (1959)
TTITLE14=He Rode The Strawberry Roan (1959)
TTITLE15=Rattlin' Cannonball (19590
TTITLE16=The Calgary Roundup (1959)
TTITLE17=That Silver Haired Daddy Of Mine (1959)
TTITLE18=The Smoke Went Up The Chimney Just The Same (1959)
TTITLE19=The Capture Of Albert Johnson (1959)
TTITLE20=Beautiful Girl Of The Prairie (1959)
TTITLE21=Singing In My Last Roundup (1959)
EXTD=
EXTT0=
EXTT1=
EXTT2=
EXTT3=
EXTT4=
EXTT5=
EXTT6=
EXTT7=
EXTT8=
EXTT9=
EXTT10=
EXTT11=
EXTT12=
EXTT13=
EXTT14=
EXTT15=
EXTT16=
EXTT17=
EXTT18=
EXTT19=
EXTT20=
EXTT21=
PLAYORDER=
